<svg width="128" height="128" fill="none" xmlns="http://www.w3.org/2000/svg"><path d="M73.949 46.25H53.894l-10.07 17.933 10.024 17.75h20.098l10.024-17.75-10.021-17.932Zm-2.675 30.817h-14.76l-7.35-12.931 7.356-13.067h14.76l7.355 13.067-7.362 12.93Z" fill="#141A1F"/><path d="m49.163 64.18 7.355 12.886h14.76l7.401-12.886-7.401-13.247h-14.76L49.163 64.18Z" fill="#E83030"/><path d="M73.949 84.366H53.894l-10.07 17.885L53.847 120h20.098l10.024-17.749-10.021-17.885Zm-2.675 30.952h-14.76l-7.35-12.931L56.52 89.32h14.76l7.355 13.067-7.362 12.931Z" fill="#141A1F"/><path d="m49.163 102.251 7.355 13.066h14.76l7.401-13.066-7.401-13.067h-14.76l-7.355 13.067Z" fill="#6B91C7"/><path d="M73.949 8H53.894l-10.07 17.933 10.07 17.749h20.098l10.024-17.75L73.95 8Zm-2.675 30.816h-14.76l-7.35-12.93 7.356-13.2h14.76l7.355 13.066-7.362 13.064Z" fill="#141A1F"/><path d="m49.163 25.929 7.355 12.886h14.76l7.401-12.886-7.401-13.247h-14.76l-7.355 13.247Z" fill="#F9C31F"/><path d="M106.573 65.443H86.678L76.653 83.376l10.025 17.749h20.098l10.024-17.75-10.227-17.932Zm-2.675 30.892h-14.76l-7.356-12.931 7.356-13.067h14.76l7.355 13.067-7.355 12.93Z" fill="#141A1F"/><path d="m81.75 83.442 7.46 12.93h14.72l7.533-12.93-7.533-13.247H89.21l-7.46 13.247Z" fill="#795AA5"/><path d="M106.573 27.192H86.678l-10.025 17.75L86.678 62.69h20.098L116.8 44.941l-10.227-17.749Zm-2.675 30.86h-14.76l-7.356-12.93 7.356-13.067h14.76l7.355 13.066-7.355 12.931Z" fill="#141A1F"/><path d="m81.75 45.13 7.342 13.105h14.838l7.534-12.93-7.534-13.248H89.092L81.75 45.13Z" fill="#F17423"/><path d="M41.15 65.443H21.225L11.2 83.376l10.025 17.749h20.098l10.024-17.75L41.15 65.444Zm-2.675 30.863H23.894l-7.356-12.93 7.356-13.067h14.76l7.355 13.067-7.534 12.93Z" fill="#141A1F"/><path d="m16.537 83.372 7.355 12.93h14.581l7.534-12.93-7.534-13.247H23.892l-7.355 13.247Z" fill="#97C639"/><path d="M41.15 27.192H21.225L11.2 44.942 21.225 62.69h20.098l10.024-17.749L41.15 27.192Zm-2.675 30.863H23.894l-7.356-12.93 7.356-13.067h14.76l7.355 13.067-7.534 12.93Z" fill="#141A1F"/><path d="m16.537 45.121 7.355 12.93h14.581l7.534-12.93-7.534-13.247H23.892l-7.355 13.247Z" fill="#C9DB70"/></svg>